<?xml version="1.0" encoding="UTF-8"?>
<svg width="60.917mm" height="15.187mm" version="1.1" viewBox="0 0 60.917 15.187" xmlns="http://www.w3.org/2000/svg"><g transform="translate(-26.89 -168.43)"><path d="m74.683 183.44c-0.29992-0.29992-0.19516-1.4011 0.20734-2.1794 0.42965-0.83086 3.2048-3.465 3.6504-3.465 0.15805 0 0.22527-0.0621 0.14938-0.13798-0.07589-0.0759-0.80517 0.11734-1.6206 0.42939-1.6059 0.61456-2.2983 0.54001-2.2983-0.24743 0-0.63842 0.97796-1.8961 1.4744-1.8961 0.48054 0 0.47442 0.13554-0.04169 0.92322l-0.41936 0.64003 1.5438-0.54254c0.84911-0.2984 1.6198-0.66539 1.7127-0.81553 0.25059-0.40511 0.75718 0.011 0.75718 0.62201 0 0.42537 0.11876 0.49725 0.59531 0.36027 0.32742-0.0941 0.83104-0.23791 1.1192-0.31955 0.28812-0.0816 0.85061-0.49823 1.25-0.92576 0.81349-0.87085 1.5021-0.88506 1.815-0.0375 0.14994 0.40619 0.06201 0.72391-0.31118 1.1245-0.68409 0.73429-0.21606 0.74232 1.8077 0.031 1.1641-0.40915 1.5472-0.45362 1.7097-0.19844 0.29906 0.46955-2.5451 1.7822-3.8639 1.7832-0.57121 4.5e-4 -1.2432-0.1853-1.4951-0.41331-0.38558-0.34895-0.63874-0.3659-1.6083-0.10768-1.1385 0.30321-2.0768 0.91866-2.0768 1.3622 0 0.36378-1.3482 2.3849-2.2191 3.3268-0.75404 0.81546-1.4479 1.0735-1.8378 0.6835zm2.497-2.9808 0.55186-0.9438-0.84248 0.79375c-0.46336 0.43656-1.0256 1.1509-1.2494 1.5875l-0.40692 0.79375 0.69754-0.6437c0.38365-0.35404 0.94588-1.0684 1.2494-1.5875zm-49.981 0.98766c-0.38448-0.38448-0.42137-1.27-0.05292-1.27 0.14552 0 0.26458 0.17859 0.26458 0.39687 0 0.23626 0.24093 0.39542 0.59531 0.39327 1.4111-9e-3 1.8043-0.3132 2.5624-1.9852 1.4212-3.1343 4.5794-7.0611 5.3139-6.6071 0.22045 0.13625 0.08044 0.40812-0.45847 0.89028-1.1984 1.0722-4.811 6.4981-4.5201 6.789 0.29598 0.29598 4.4287-2.5015 6.0019-4.0628 3.4302-3.4041 3.448-5.6039 0.04538-5.6039-2.2728 0-6.4698 1.8869-7.1899 3.2325-0.32891 0.61457-0.09343 0.9206 0.80379 1.0446 0.3524 0.0487 0.68975 0.23738 0.74965 0.41928 0.16088 0.4885-1.3968 0.4188-1.9007-0.085-1.6451-1.6451 1.9111-4.6867 6.3558-5.436 2.9306-0.49405 4.3409 0.38465 4.3409 2.7046 0 1.2153-0.94036 2.7835-2.7474 4.5816-3.3249 3.3086-8.9219 5.8406-10.164 4.5981zm40.67-0.37135c-0.48449-0.58378-0.37743-2.1237 0.26525-3.815 0.29627-0.77973 0.50273-1.4536 0.45881-1.4976-0.04393-0.0439-1.0617 0.99077-2.2617 2.2993-2.0594 2.2456-2.9979 2.8328-3.2747 2.0485-0.24559-0.69585 4.3569-8.704 5.358-9.3227 0.55796-0.34484 0.23517 0.51176-0.88231 2.3414-0.63425 1.0384-1.6055 2.7215-2.1584 3.7402-1.227 2.2607-0.83174 1.9717 2.4422-1.7859 1.2362-1.4188 2.3455-2.5797 2.4651-2.5797 0.5163 0 0.35072 1.0547-0.43615 2.7781-1.1219 2.4572-1.8142 4.8752-1.4889 5.2005 0.75024 0.75025 3.4858-1.314 5.7725-4.356 1.7592-2.3402 2.4943-3.9168 2.4943-5.3492 0-0.74265 0.10286-1.1515 0.26458-1.0515 0.56241 0.34758 0.28046 2.6619-0.51865 4.2572-0.98953 1.9754-3.9967 5.7468-5.383 6.7511-1.1859 0.85905-2.5621 1.0098-3.1169 0.34134zm-29.963-2.6625c-0.09701-0.097-0.17639-0.44553-0.17639-0.77449 0-0.66575 1.5991-2.1437 2.5943-2.3977 0.76404-0.19503 1.993 0.86136 1.8112 1.5568-0.15634 0.59785-0.14015 0.59564 1.4153-0.19259 0.71793-0.3638 1.3688-0.66145 1.4464-0.66145 0.0776 0 0.14109 0.36024 0.14109 0.80054v0.80054l0.8599-0.43557c0.47294-0.23957 1.0754-0.62474 1.3388-0.85594 0.36768-0.32273 0.9511-0.40278 2.5118-0.34466 1.1181 0.0416 2.0828 0.1256 2.1437 0.18657 0.06097 0.061-0.02007 0.39822-0.18009 0.74943l-0.29095 0.63856 1.637-0.54922c0.90037-0.30207 1.8958-0.66366 2.212-0.80353 0.31621-0.13988 0.85812-0.18325 1.2042-0.0964 0.53013 0.13305 1.0025-0.21913 2.9969-2.2345 2.7296-2.7582 6.3711-5.6203 6.8075-5.3506 0.18568 0.11476-0.14646 0.53913-0.88023 1.1246-1.6823 1.3424-7.768 7.4094-7.6004 7.577 0.07722 0.0772 0.87722-0.23403 1.7778-0.69166 0.90056-0.45764 1.7035-0.76591 1.7844-0.68506 0.37789 0.37789-0.31618 1.049-1.8207 1.7606-1.4865 0.70302-1.704 0.74213-2.2257 0.4003-0.46705-0.30602-0.73725-0.3188-1.4057-0.0665-0.64218 0.2424-0.94347 0.23996-1.3451-0.0109-0.4241-0.26485-0.7837-0.22366-1.991 0.22805-1.677 0.62744-2.2427 0.53189-2.2427-0.37881 0-0.54267-0.1567-0.65594-1.0784-0.77957-0.89397-0.1199-1.2732-0.0132-2.2176 0.62418-1.4601 0.98543-2.3025 1.0917-2.6404 0.33312l-0.25518-0.57287-1.2966 0.65705c-1.3449 0.6815-2.0368 0.66875-2.0368-0.0375 0-0.35015-0.15417-0.33191-1.0478 0.12399-1.0893 0.55571-1.6503 0.6587-1.9508 0.35815zm2.9986-2.078c0-0.33503-0.74213-0.056-1.4552 0.54705l-0.79375 0.67132 1.1245-0.54572c0.61846-0.30015 1.1245-0.60284 1.1245-0.67265zm12.435-2.6224c0-0.20837 0.34883-0.62724 0.77517-0.93083 1.057-0.75265 1.4354-0.162 0.4431 0.69157-0.82202 0.70707-1.2183 0.78489-1.2183 0.23926zm24.342 0.1604c0-0.32332 1.1751-1.369 1.5384-1.369 0.48564 0 0.37322 0.38099-0.29869 1.0122-0.61809 0.58066-1.2397 0.75958-1.2397 0.35682z" stroke-width=".26458"/></g></svg>
